<svg width="46" height="46" viewBox="0 0 46 46" fill="none" xmlns="http://www.w3.org/2000/svg">
<circle cx="23.0601" cy="22.8797" r="22.5432" fill="#433D4C" stroke="#3C567B" stroke-width="0.672932"/>
<path d="M21.2656 24.8987L25.9223 22.207L21.2656 19.5152V24.8987ZM31.6377 17.8733C31.7544 18.295 31.8351 18.8603 31.889 19.578C31.9518 20.2958 31.9787 20.9149 31.9787 21.4533L32.0325 22.207C32.0325 24.1719 31.889 25.6165 31.6377 26.5407C31.4134 27.3482 30.893 27.8686 30.0855 28.0929C29.6638 28.2095 28.8922 28.2903 27.7078 28.3441C26.5414 28.4069 25.4737 28.4338 24.4867 28.4338L23.0601 28.4877C19.3006 28.4877 16.9588 28.3441 16.0347 28.0929C15.2271 27.8686 14.7067 27.3482 14.4824 26.5407C14.3658 26.119 14.285 25.5537 14.2312 24.8359C14.1684 24.1181 14.1415 23.499 14.1415 22.9607L14.0876 22.207C14.0876 20.242 14.2312 18.7974 14.4824 17.8733C14.7067 17.0658 15.2271 16.5454 16.0347 16.3211C16.4564 16.2044 17.228 16.1237 18.4124 16.0698C19.5788 16.007 20.6465 15.9801 21.6335 15.9801L23.0601 15.9263C26.8195 15.9263 29.1613 16.0698 30.0855 16.3211C30.893 16.5454 31.4134 17.0658 31.6377 17.8733Z" fill="white"/>
</svg>
