<svg width="68" height="68" viewBox="0 0 68 68" fill="none" xmlns="http://www.w3.org/2000/svg">
<circle cx="34" cy="34" r="33.5" fill="#433D4C" stroke="#3C567B"/>
<path d="M31.3333 36.9998L38.2533 32.9998L31.3333 28.9998V36.9998ZM46.7467 26.5598C46.92 27.1865 47.04 28.0265 47.12 29.0932C47.2133 30.1598 47.2533 31.0798 47.2533 31.8798L47.3333 32.9998C47.3333 35.9198 47.12 38.0665 46.7467 39.4398C46.4133 40.6398 45.64 41.4132 44.44 41.7465C43.8133 41.9198 42.6667 42.0398 40.9067 42.1198C39.1733 42.2132 37.5867 42.2532 36.12 42.2532L34 42.3332C28.4133 42.3332 24.9333 42.1198 23.56 41.7465C22.36 41.4132 21.5867 40.6398 21.2533 39.4398C21.08 38.8132 20.96 37.9732 20.88 36.9065C20.7867 35.8398 20.7467 34.9198 20.7467 34.1198L20.6667 32.9998C20.6667 30.0798 20.88 27.9332 21.2533 26.5598C21.5867 25.3598 22.36 24.5865 23.56 24.2532C24.1867 24.0798 25.3333 23.9598 27.0933 23.8798C28.8267 23.7865 30.4133 23.7465 31.88 23.7465L34 23.6665C39.5867 23.6665 43.0667 23.8798 44.44 24.2532C45.64 24.5865 46.4133 25.3598 46.7467 26.5598Z" fill="white"/>
</svg>
