<svg width="46" height="46" viewBox="0 0 46 46" fill="none" xmlns="http://www.w3.org/2000/svg">
<circle cx="22.9398" cy="22.8797" r="22.5432" fill="#433D4C" stroke="#3C567B" stroke-width="0.672932"/>
<path d="M22.9398 13.2705C18.005 13.2705 13.9674 17.2991 13.9674 22.2609C13.9674 26.7471 17.2513 30.4707 21.5401 31.1436V24.8629H19.2611V22.2609H21.5401V20.278C21.5401 18.0259 22.877 16.7877 24.9317 16.7877C25.9097 16.7877 26.9326 16.9582 26.9326 16.9582V19.1744H25.802C24.6895 19.1744 24.3395 19.8652 24.3395 20.5741V22.2609H26.8339L26.4301 24.8629H24.3395V31.1436C26.4538 30.8097 28.3791 29.7309 29.7678 28.102C31.1565 26.4731 31.9171 24.4014 31.9123 22.2609C31.9123 17.2991 27.8747 13.2705 22.9398 13.2705Z" fill="white"/>
</svg>
