<svg width="68" height="68" viewBox="0 0 68 68" fill="none" xmlns="http://www.w3.org/2000/svg">
<circle cx="34" cy="34" r="33.5" fill="#433D4C" stroke="#3C567B"/>
<path d="M47.9463 26.0002C46.9197 26.4668 45.813 26.7735 44.6663 26.9202C45.8397 26.2135 46.7463 25.0935 47.173 23.7468C46.0663 24.4135 44.8397 24.8802 43.5463 25.1468C42.493 24.0002 41.013 23.3335 39.333 23.3335C36.1997 23.3335 33.6397 25.8935 33.6397 29.0535C33.6397 29.5068 33.693 29.9468 33.7863 30.3602C29.0397 30.1202 24.813 27.8402 21.9997 24.3868C21.5063 25.2268 21.2263 26.2135 21.2263 27.2535C21.2263 29.2402 22.2263 31.0002 23.773 32.0002C22.8263 32.0002 21.9463 31.7335 21.173 31.3335C21.173 31.3335 21.173 31.3335 21.173 31.3735C21.173 34.1468 23.1463 36.4668 25.7597 36.9868C25.2797 37.1202 24.773 37.1868 24.253 37.1868C23.893 37.1868 23.533 37.1468 23.1863 37.0802C23.9063 39.3335 25.9997 41.0135 28.5197 41.0535C26.573 42.6002 24.1063 43.5068 21.413 43.5068C20.9597 43.5068 20.5063 43.4802 20.053 43.4268C22.5863 45.0535 25.5997 46.0002 28.8263 46.0002C39.333 46.0002 45.1063 37.2802 45.1063 29.7202C45.1063 29.4668 45.1063 29.2268 45.093 28.9735C46.213 28.1735 47.173 27.1602 47.9463 26.0002Z" fill="white"/>
</svg>
