<svg width="68" height="68" viewBox="0 0 68 68" fill="none" xmlns="http://www.w3.org/2000/svg">
<circle cx="34" cy="34" r="33.5" fill="#433D4C" stroke="#3C567B"/>
<path d="M28.4 19.6665H39.6C43.8667 19.6665 47.3333 23.1332 47.3333 27.3998V38.5998C47.3333 40.6508 46.5186 42.6178 45.0683 44.0681C43.618 45.5184 41.651 46.3332 39.6 46.3332H28.4C24.1333 46.3332 20.6667 42.8665 20.6667 38.5998V27.3998C20.6667 25.3488 21.4814 23.3818 22.9317 21.9315C24.382 20.4813 26.349 19.6665 28.4 19.6665ZM28.1333 22.3332C26.8603 22.3332 25.6394 22.8389 24.7392 23.7391C23.839 24.6392 23.3333 25.8601 23.3333 27.1332V38.8665C23.3333 41.5198 25.48 43.6665 28.1333 43.6665H39.8667C41.1397 43.6665 42.3606 43.1608 43.2608 42.2606C44.161 41.3604 44.6667 40.1395 44.6667 38.8665V27.1332C44.6667 24.4798 42.52 22.3332 39.8667 22.3332H28.1333ZM41 24.3332C41.442 24.3332 41.866 24.5088 42.1785 24.8213C42.4911 25.1339 42.6667 25.5578 42.6667 25.9998C42.6667 26.4419 42.4911 26.8658 42.1785 27.1783C41.866 27.4909 41.442 27.6665 41 27.6665C40.558 27.6665 40.1341 27.4909 39.8215 27.1783C39.5089 26.8658 39.3333 26.4419 39.3333 25.9998C39.3333 25.5578 39.5089 25.1339 39.8215 24.8213C40.1341 24.5088 40.558 24.3332 41 24.3332ZM34 26.3332C35.7681 26.3332 37.4638 27.0355 38.714 28.2858C39.9643 29.536 40.6667 31.2317 40.6667 32.9998C40.6667 34.7679 39.9643 36.4636 38.714 37.7139C37.4638 38.9641 35.7681 39.6665 34 39.6665C32.2319 39.6665 30.5362 38.9641 29.286 37.7139C28.0357 36.4636 27.3333 34.7679 27.3333 32.9998C27.3333 31.2317 28.0357 29.536 29.286 28.2858C30.5362 27.0355 32.2319 26.3332 34 26.3332ZM34 28.9998C32.9391 28.9998 31.9217 29.4213 31.1716 30.1714C30.4214 30.9216 30 31.939 30 32.9998C30 34.0607 30.4214 35.0781 31.1716 35.8283C31.9217 36.5784 32.9391 36.9998 34 36.9998C35.0609 36.9998 36.0783 36.5784 36.8284 35.8283C37.5786 35.0781 38 34.0607 38 32.9998C38 31.939 37.5786 30.9216 36.8284 30.1714C36.0783 29.4213 35.0609 28.9998 34 28.9998Z" fill="white"/>
</svg>
