<svg width="46" height="46" viewBox="0 0 46 46" fill="none" xmlns="http://www.w3.org/2000/svg">
<circle cx="22.8797" cy="22.8797" r="22.5432" fill="#433D4C" stroke="#3C567B" stroke-width="0.672932"/>
<path d="M19.1112 13.2344H26.6481C29.5193 13.2344 31.8521 15.5672 31.8521 18.4384V25.9752C31.8521 27.3554 31.3038 28.6791 30.3279 29.655C29.3519 30.631 28.0283 31.1792 26.6481 31.1792H19.1112C16.2401 31.1792 13.9072 28.8464 13.9072 25.9752V18.4384C13.9072 17.0582 14.4555 15.7345 15.4314 14.7586C16.4074 13.7827 17.731 13.2344 19.1112 13.2344ZM18.9318 15.0289C18.0751 15.0289 17.2535 15.3692 16.6478 15.9749C16.042 16.5807 15.7017 17.4023 15.7017 18.2589V26.1547C15.7017 27.9402 17.1463 29.3848 18.9318 29.3848H26.8275C27.6842 29.3848 28.5058 29.0444 29.1115 28.4387C29.7173 27.8329 30.0576 27.0113 30.0576 26.1547V18.2589C30.0576 16.4734 28.613 15.0289 26.8275 15.0289H18.9318ZM27.5902 16.3747C27.8876 16.3747 28.1729 16.4929 28.3832 16.7032C28.5936 16.9136 28.7117 17.1988 28.7117 17.4963C28.7117 17.7937 28.5936 18.079 28.3832 18.2893C28.1729 18.4997 27.8876 18.6178 27.5902 18.6178C27.2927 18.6178 27.0075 18.4997 26.7971 18.2893C26.5868 18.079 26.4686 17.7937 26.4686 17.4963C26.4686 17.1988 26.5868 16.9136 26.7971 16.7032C27.0075 16.4929 27.2927 16.3747 27.5902 16.3747ZM22.8797 17.7206C24.0695 17.7206 25.2106 18.1932 26.0519 19.0346C26.8932 19.8759 27.3659 21.017 27.3659 22.2068C27.3659 23.3966 26.8932 24.5377 26.0519 25.379C25.2106 26.2204 24.0695 26.693 22.8797 26.693C21.6898 26.693 20.5488 26.2204 19.7074 25.379C18.8661 24.5377 18.3934 23.3966 18.3934 22.2068C18.3934 21.017 18.8661 19.8759 19.7074 19.0346C20.5488 18.1932 21.6898 17.7206 22.8797 17.7206ZM22.8797 19.5151C22.1658 19.5151 21.4811 19.7987 20.9763 20.3035C20.4715 20.8083 20.1879 21.4929 20.1879 22.2068C20.1879 22.9207 20.4715 23.6053 20.9763 24.1101C21.4811 24.6149 22.1658 24.8985 22.8797 24.8985C23.5935 24.8985 24.2782 24.6149 24.783 24.1101C25.2878 23.6053 25.5714 22.9207 25.5714 22.2068C25.5714 21.4929 25.2878 20.8083 24.783 20.3035C24.2782 19.7987 23.5935 19.5151 22.8797 19.5151Z" fill="white"/>
</svg>
