<svg width="68" height="68" viewBox="0 0 68 68" fill="none" xmlns="http://www.w3.org/2000/svg">
<circle cx="34" cy="34" r="33.5" fill="#433D4C" stroke="#3C567B"/>
<path d="M34 19.7202C26.6667 19.7202 20.6667 25.7069 20.6667 33.0802C20.6667 39.7469 25.5467 45.2802 31.92 46.2802V36.9469H28.5333V33.0802H31.92V30.1335C31.92 26.7869 33.9067 24.9469 36.96 24.9469C38.4133 24.9469 39.9333 25.2002 39.9333 25.2002V28.4935H38.2533C36.6 28.4935 36.08 29.5202 36.08 30.5735V33.0802H39.7867L39.1867 36.9469H36.08V46.2802C39.2219 45.784 42.0829 44.1809 44.1466 41.7603C46.2102 39.3397 47.3405 36.2611 47.3333 33.0802C47.3333 25.7069 41.3333 19.7202 34 19.7202Z" fill="white"/>
</svg>
