<svg width="46" height="46" viewBox="0 0 46 46" fill="none" xmlns="http://www.w3.org/2000/svg">
<circle cx="23.0001" cy="22.8797" r="22.5432" fill="#433D4C" stroke="#3C567B" stroke-width="0.672932"/>
<path d="M32.3849 17.4966C31.6941 17.8107 30.9494 18.017 30.1777 18.1157C30.9673 17.6402 31.5774 16.8865 31.8645 15.9803C31.1198 16.4289 30.2944 16.743 29.424 16.9224C28.7152 16.1508 27.7193 15.7021 26.5888 15.7021C24.4802 15.7021 22.7575 17.4249 22.7575 19.5513C22.7575 19.8564 22.7934 20.1525 22.8562 20.4306C19.662 20.2691 16.8178 18.7348 14.9246 16.411C14.5926 16.9762 14.4042 17.6402 14.4042 18.34C14.4042 19.6769 15.0771 20.8613 16.1179 21.5342C15.4809 21.5342 14.8887 21.3548 14.3683 21.0856C14.3683 21.0856 14.3683 21.0856 14.3683 21.1125C14.3683 22.9788 15.6962 24.54 17.4548 24.8899C17.1318 24.9796 16.7909 25.0245 16.4409 25.0245C16.1987 25.0245 15.9564 24.9976 15.7231 24.9527C16.2077 26.4691 17.6163 27.5996 19.3121 27.6265C18.0021 28.6673 16.3422 29.2774 14.5298 29.2774C14.2247 29.2774 13.9197 29.2595 13.6146 29.2236C15.3194 30.3182 17.3472 30.9553 19.5185 30.9553C26.5888 30.9553 30.4738 25.0873 30.4738 19.9999C30.4738 19.8295 30.4738 19.668 30.4648 19.4975C31.2185 18.9591 31.8645 18.2772 32.3849 17.4966Z" fill="white"/>
</svg>
