<svg width="24" height="25" viewBox="0 0 24 25" fill="none" xmlns="http://www.w3.org/2000/svg">
<g clip-path="url(#clip0)">
<path d="M19.82 14.1123C20.13 14.5623 20.66 14.8623 21.25 14.8623C22.22 14.8623 23 14.0823 23 13.1123C23 12.1423 22.22 11.3623 21.25 11.3623C20.66 11.3623 20.13 11.6623 19.82 12.1123H19C19 10.5423 18.5 9.1123 17.6 7.9223L18.94 6.5823C19.5 6.6823 20.07 6.5223 20.5 6.1123C21.17 5.4223 21.17 4.3123 20.5 3.6123C19.81 2.9423 18.7 2.9423 18 3.6123C17.59 4.0423 17.43 4.6123 17.53 5.1723L16.19 6.5123C15.27 5.8223 14.19 5.3623 13 5.1923V3.7923C13.45 3.4823 13.75 2.9523 13.75 2.3623C13.75 1.3923 12.97 0.612305 12 0.612305C11.03 0.612305 10.25 1.3923 10.25 2.3623C10.25 2.9523 10.55 3.4823 11 3.7923V5.1923C10.1 5.3223 9.26001 5.6123 8.50001 6.0523L7.39001 4.4623C7.58001 3.9423 7.53001 3.3423 7.19001 2.8623C6.63001 2.0723 5.54001 1.8723 4.75001 2.4323C3.96001 2.9823 3.76001 4.0723 4.32001 4.8623C4.66001 5.3523 5.20001 5.6123 5.75001 5.6123L6.93001 7.2923C6.50001 7.7223 6.16001 8.2023 5.87001 8.7323C5.25001 8.4923 4.50001 8.6123 4.00001 9.1123C3.33001 9.8123 3.33001 10.9123 4.00001 11.6123C4.29001 11.8823 4.64001 12.0423 5.00001 12.1123C5.00001 12.6523 5.07001 13.1723 5.18001 13.6723L3.87001 14.0223C3.45001 13.6723 2.87001 13.5223 2.29001 13.6723C1.36001 13.9223 0.808013 14.8823 1.06001 15.8223C1.31001 16.7523 2.28001 17.3023 3.21001 17.0523C3.78001 16.8923 4.21001 16.4723 4.39001 15.9523L5.90001 15.5423C6.35001 16.3323 6.95001 17.0323 7.65001 17.6123L6.55001 19.6123C6.00001 19.6923 5.50001 20.0023 5.21001 20.5323C4.75001 21.3823 5.07001 22.4423 5.92001 22.9023C6.77001 23.3623 7.83001 23.0423 8.29001 22.1923C8.57001 21.6723 8.56001 21.0723 8.31001 20.5823L9.38001 18.6123C10.19 18.9323 11.07 19.1123 12 19.1123C12.06 19.1123 12.12 19.1123 12.18 19.1123C12.05 19.3723 12 19.6723 12 19.9923C12.08 20.9623 12.92 21.6823 13.88 21.6123C14.84 21.5423 15.57 20.6923 15.5 19.7323C15.46 19.2323 15.21 18.7923 14.85 18.5023C15.32 18.2923 15.77 18.0223 16.19 17.7123L18.53 20.0523C18.43 20.6123 18.59 21.1823 19 21.6123C19.7 22.2823 20.8 22.2823 21.5 21.6123C22.2 20.9423 22.17 19.8123 21.5 19.1123C21.07 18.7023 20.5 18.5423 19.94 18.6423L17.6 16.3023C18.09 15.6523 18.47 14.9123 18.71 14.1123H19.82ZM10.5 12.1123C9.67001 12.1123 9.00001 11.4423 9.00001 10.6123C9.00001 9.7823 9.67001 9.1123 10.5 9.1123C11.33 9.1123 12 9.7823 12 10.6123C12 11.4423 11.33 12.1123 10.5 12.1123ZM14 15.1123C13.45 15.1123 13 14.6623 13 14.1123C13 13.5623 13.45 13.1123 14 13.1123C14.55 13.1123 15 13.5623 15 14.1123C15 14.6623 14.55 15.1123 14 15.1123Z" fill="#49CB29"/>
</g>
<defs>
<clipPath id="clip0">
<rect width="24" height="24" fill="white" transform="translate(0 0.112305)"/>
</clipPath>
</defs>
</svg>
